<svg width="62" height="131" viewBox="0 0 62 131" fill="none" xmlns="http://www.w3.org/2000/svg">
<path d="M32.9755 3.23191C34.1368 3.1319 35.3056 3.15609 36.4703 3.18616C36.8611 3.22472 37.2546 3.24237 37.6419 3.30839C39.0051 3.51756 40.3683 3.79864 41.6329 4.34118C42.6943 4.74122 43.6811 5.31056 44.5721 5.99036C45.0833 6.39433 45.652 6.73162 46.2507 7.00419C46.766 7.22774 47.3203 7.40685 47.8945 7.37939C48.2633 7.3977 48.7102 7.3271 48.9326 7.01596C49.1591 6.69632 48.83 6.36883 48.869 6.0322C49.2036 6.02043 49.4479 6.27732 49.6779 6.47407C50.6729 7.47352 51.3373 8.73901 51.7349 10.0568C51.8903 10.615 51.839 11.1994 51.8437 11.7707C51.8526 12.729 51.466 13.629 51.1895 14.5344C51.0876 14.8972 50.9028 15.2338 50.8132 15.6011C50.716 15.9888 50.6174 16.377 50.5469 16.7699C50.5203 17.1033 50.4949 17.4373 50.471 17.7713C50.3738 18.8021 50.315 19.8375 50.1829 20.8651C50.1268 21.5449 49.992 22.2155 49.9078 22.8921C49.8352 23.2359 49.788 23.5922 49.6115 23.9053C49.5656 23.8954 49.4746 23.8765 49.4288 23.8667C49.3295 23.5484 49.1701 23.247 49.1112 22.9176C49.0182 22.4018 49.0969 21.8783 49.0722 21.3592C49.2091 19.8892 49.3911 18.4093 49.2419 16.9333C49.207 16.3241 49.0955 15.7214 48.9846 15.1214C48.8471 14.403 48.6055 13.6885 48.1586 13.0891C47.9082 12.7584 47.5647 12.4766 47.1472 12.3642C46.6326 12.225 46.0968 12.1747 45.565 12.1335C44.0027 12.0786 42.4158 12.1139 40.8952 12.4897C40.2068 12.6492 39.6566 13.1682 38.9339 13.2153C38.331 13.2669 37.7829 12.976 37.2833 12.6937C36.6079 12.3015 35.8004 12.2609 35.0415 12.1328C33.655 11.974 32.2439 11.9335 30.8575 12.1165C30.3449 12.2041 29.7872 12.3132 29.4006 12.6714C28.9934 13.1283 28.8504 13.7382 28.7457 14.3147C28.5937 15.356 28.5575 16.4084 28.5629 17.4588C28.5725 17.9164 28.5301 18.3772 28.6095 18.8315C28.6245 19.0492 28.591 19.2662 28.5766 19.4839C28.5499 20.5886 28.6122 21.6972 28.515 22.7999C28.4624 23.0705 28.3289 23.3189 28.1257 23.5137C27.9231 23.3804 27.8348 23.1535 27.7814 22.9339C27.6213 22.1423 27.5166 21.3377 27.5221 20.5304C27.4331 19.5983 27.4879 18.6616 27.4482 17.7275C27.3654 16.7712 27.4591 15.809 27.3941 14.8514C27.3346 14.354 27.1676 13.8709 26.9397 13.4218C26.6899 12.8969 26.2253 12.4891 26.0268 11.9387C25.8161 11.2863 25.6867 10.6065 25.4027 9.97704C25.2371 9.69924 25.0188 9.33253 24.6281 9.36783C24.1819 9.32404 23.8555 9.65152 23.501 9.84827C23.3894 9.89534 23.2396 10.0339 23.1568 9.87638C23.2437 9.57177 23.4579 9.31946 23.6502 9.06911C24.0936 8.56121 24.5911 8.08666 25.1776 7.7291C25.6005 7.46176 26.1548 7.40227 26.5045 7.02772C26.5059 6.96955 26.5052 6.91137 26.5024 6.8532C26.2089 6.81725 25.9084 6.81202 25.6162 6.85777C24.6958 7.07087 23.8493 7.52124 22.907 7.65459C22.7886 7.67289 22.6155 7.66962 22.6066 7.51993C22.7975 7.21663 23.1362 7.0421 23.4291 6.84078C24.5911 6.16424 25.8236 5.57267 27.1443 5.238C29.3705 4.69742 31.7006 4.90136 33.937 4.43073C34.1621 4.38105 34.3749 4.29542 34.5891 4.21567C34.5919 4.18038 34.5973 4.11043 34.5994 4.07514C34.1915 3.84832 33.7009 3.90715 33.2499 3.87838C32.7059 3.82348 32.142 3.84243 31.6233 3.65287C31.5336 3.63849 31.4898 3.56724 31.4789 3.4875C31.9456 3.2829 32.4705 3.25675 32.9755 3.23191Z" fill="#582200" stroke="#582200" stroke-width="0.5"/>
<path d="M30.8575 12.1169C32.244 11.9339 33.6551 11.9744 35.0415 12.1332C35.8004 12.2613 36.6079 12.3019 37.2834 12.6941C37.7829 12.9764 38.3311 13.2673 38.934 13.2157C39.6566 13.1686 40.2068 12.6496 40.8952 12.4901C42.4158 12.1143 44.0028 12.079 45.5651 12.1339C46.0968 12.1751 46.6326 12.2254 47.1473 12.3646C47.5647 12.477 47.9082 12.7588 48.1587 13.0895C48.6055 13.6889 48.8471 14.4034 48.9847 15.1218C49.0955 15.7218 49.2071 16.3245 49.242 16.9337C49.3912 18.4097 49.2091 19.8896 49.0723 21.3597C49.0018 21.6244 49.0038 21.8976 49.0086 22.1682C49.0202 22.5356 48.8368 22.8683 48.7007 23.201C48.1375 24.4469 47.4196 25.6294 46.5642 26.7131C46.0236 27.3655 45.4638 28.0257 44.7343 28.495C44.4161 28.7009 44.0986 28.9179 43.729 29.0304C43.5231 28.8696 43.6428 28.6192 43.6941 28.4179C43.9323 27.6603 44.1239 26.8811 44.1437 26.0869C44.141 25.6503 44.0644 25.1653 43.7119 24.8528C43.315 24.477 42.7012 24.4672 42.1838 24.5508C41.3893 24.6633 40.7125 25.1241 39.9317 25.281C40.0282 25.0757 40.2759 24.8875 40.174 24.643C39.7942 24.8241 39.4978 25.1646 39.0667 25.2398C38.561 25.3078 38.0471 25.164 37.605 24.9345C37.3244 24.7973 37.191 24.4835 37.2211 24.1933C37.2553 23.7887 37.3908 23.3997 37.4866 23.0062C37.5783 22.8317 37.6851 22.6598 37.7261 22.4663C37.8048 21.7708 37.7439 21.0675 37.8171 20.372C38.4898 20.3739 39.1632 20.3556 39.8352 20.3831C39.8653 20.9779 39.84 21.5734 39.8455 22.1689C39.8044 22.85 40.473 23.4854 41.1847 23.4488C43.1487 23.4455 45.1127 23.4455 47.0774 23.4488C47.7009 23.4788 48.2908 22.9945 48.3756 22.4075C48.4365 22.0244 48.3968 21.6355 48.4064 21.2505C48.3927 20.7164 48.4536 20.1765 48.3359 19.6503C48.5433 19.6261 48.8156 19.6922 48.9669 19.5216C49.0654 19.2934 49.0189 19.0333 48.9546 18.8019C48.3044 18.7698 47.6537 18.8045 47.0049 18.747C45.9339 18.8032 44.8609 18.7783 43.7886 18.7829C42.8983 18.7803 42.0073 18.7895 41.1176 18.7849C40.7324 18.7744 40.358 18.9646 40.1281 19.2555C40.0049 19.4124 39.9495 19.6098 39.8126 19.7575C39.1324 19.7869 38.4495 19.7686 37.7686 19.7641C37.5804 19.2849 37.1787 18.813 36.6038 18.7888C34.9156 18.7796 33.2274 18.7836 31.5391 18.7829C31.1053 18.7731 30.6714 18.7182 30.2382 18.7646C29.6969 18.8248 29.1474 18.7352 28.6095 18.8319C28.5301 18.3776 28.5726 17.9168 28.563 17.4593C28.5575 16.4088 28.5938 15.3564 28.7457 14.3151C28.8504 13.7386 28.9934 13.1287 29.4006 12.6718C29.7873 12.3136 30.345 12.2045 30.8575 12.1169ZM32.3117 18.2012C32.1899 18.2476 32.1064 18.3456 32.0312 18.443C32.1892 18.5992 32.4329 18.543 32.6347 18.5286C33.0618 18.4437 33.4997 18.4587 33.9329 18.462C34.6015 18.4522 35.255 18.6156 35.9202 18.6476C36.1857 18.645 36.493 18.4646 36.4444 18.1757C36.5005 17.8874 36.1898 17.724 35.9517 17.6403C35.4425 17.6004 34.9286 17.6122 34.4181 17.6331C33.6941 17.7299 32.9762 17.9044 32.3117 18.2012ZM41.5666 17.641C41.3264 17.7194 41.0437 17.9037 41.0732 18.1789C41.0458 18.4247 41.3017 18.6058 41.5317 18.643C42.2194 18.6306 42.8942 18.4528 43.584 18.462C44.0404 18.4548 44.5003 18.4489 44.9499 18.5358C45.1189 18.5332 45.3659 18.6084 45.4727 18.443C45.4269 18.3071 45.2845 18.2365 45.1613 18.175C44.5311 17.8861 43.8406 17.7456 43.1542 17.6384C42.6266 17.6076 42.0935 17.6018 41.5666 17.641Z" fill="#FFAE6E" stroke="#FFAE6E" stroke-width="0.5"/>
<path d="M32.3117 18.201C32.9762 17.9043 33.694 17.7297 34.4181 17.633C34.9286 17.6121 35.4425 17.6003 35.9516 17.6402C36.1898 17.7239 36.5005 17.8873 36.4444 18.1755C36.4929 18.4645 36.1857 18.6449 35.9202 18.6475C35.255 18.6155 34.6015 18.452 33.9329 18.4618C33.4997 18.4586 33.0617 18.4435 32.6347 18.5285C32.4328 18.5429 32.1892 18.5991 32.0311 18.4429C32.1064 18.3455 32.1899 18.2474 32.3117 18.201Z" fill="#562100" stroke="#562100" stroke-width="0.5"/>
<path d="M41.5666 17.6408C42.0935 17.6016 42.6266 17.6075 43.1542 17.6382C43.8406 17.7454 44.5311 17.886 45.1613 18.1749C45.2845 18.2363 45.4269 18.3069 45.4727 18.4429C45.3659 18.6083 45.1189 18.5331 44.9499 18.5357C44.5003 18.4488 44.0404 18.4546 43.584 18.4618C42.8942 18.4527 42.2194 18.6305 41.5317 18.6429C41.3017 18.6056 41.0458 18.4246 41.0732 18.1788C41.0437 17.9036 41.3264 17.7193 41.5666 17.6408Z" fill="#562100" stroke="#562100" stroke-width="0.5"/>
<path d="M27.4483 17.7279C27.488 18.662 27.4332 19.5987 27.5222 20.5308C27.5167 21.3381 27.6214 22.1427 27.7816 22.9343C26.8646 22.55 26.2945 21.6701 26.0133 20.7844C25.8483 20.302 25.8675 19.7889 25.8915 19.2888C25.9715 18.7823 26.2062 18.2534 26.6723 17.9652C26.9015 17.8148 27.1821 17.7782 27.4483 17.7279Z" fill="#FFAE6E" stroke="#FFAE6E" stroke-width="0.5"/>
<path d="M50.1829 20.8654C50.315 19.8378 50.3739 18.8024 50.471 17.7716C50.9528 17.8697 51.3258 18.2279 51.5194 18.6488C51.7863 19.1495 51.7117 19.7274 51.7021 20.2686C51.6118 20.9811 51.284 21.6596 50.8125 22.2159C50.5751 22.5074 50.2616 22.742 49.9078 22.8924C49.992 22.2159 50.1268 21.5452 50.1829 20.8654Z" fill="#FFAE6E" stroke="#FFAE6E" stroke-width="0.5"/>
<path d="M28.6095 18.8318C29.1474 18.7351 29.6969 18.8246 30.2382 18.7645C30.6714 18.7181 31.1052 18.773 31.5391 18.7828C33.2273 18.7834 34.9156 18.7795 36.6038 18.7887C37.1786 18.8128 37.5803 19.2848 37.7685 19.7639C38.4494 19.7685 39.1324 19.7868 39.8126 19.7574C39.9495 19.6097 40.0049 19.4123 40.1281 19.2554C40.358 18.9645 40.7324 18.7743 41.1176 18.7847C42.0073 18.7893 42.8982 18.7802 43.7886 18.7828C44.8609 18.7782 45.9339 18.803 47.0049 18.7468C47.6536 18.8044 48.3044 18.7697 48.9545 18.8017C49.0189 19.0331 49.0654 19.2933 48.9669 19.5214C48.8156 19.692 48.5433 19.626 48.3359 19.6502C48.4536 20.1764 48.3927 20.7163 48.4064 21.2504C48.3968 21.6354 48.4365 22.0243 48.3756 22.4073C48.2907 22.9943 47.7008 23.4787 47.0774 23.4486C45.1127 23.4453 43.1487 23.4453 41.1847 23.4486C40.473 23.4852 39.8044 22.8499 39.8455 22.1687C39.84 21.5733 39.8653 20.9778 39.8352 20.3829C39.1632 20.3555 38.4898 20.3738 37.8171 20.3718C37.7439 21.0673 37.8048 21.7707 37.7261 22.4662C37.685 22.6596 37.5783 22.8316 37.4866 23.0061C37.3388 23.1218 37.1841 23.2303 37.0226 23.3277C36.6551 23.4931 36.2432 23.4427 35.8504 23.4466C34.0697 23.4466 32.2884 23.4447 30.5078 23.448C30.0541 23.4676 29.6298 23.1996 29.3937 22.8427C29.1399 22.4433 29.1891 21.9589 29.1878 21.5118C29.2028 20.8915 29.1419 20.2653 29.2569 19.6502C29.0174 19.6515 28.7628 19.6502 28.5767 19.4842C28.591 19.2665 28.6246 19.0495 28.6095 18.8318ZM29.8481 20.0071C29.8454 20.749 29.8447 21.4909 29.8481 22.2328C29.8379 22.5923 30.2184 22.8714 30.579 22.8446C32.5191 22.8453 34.4598 22.8459 36.3992 22.844C36.7564 22.8662 37.1335 22.5877 37.1225 22.2321C37.1253 21.5118 37.1205 20.7915 37.1246 20.0711C37.167 19.7234 36.8358 19.3678 36.4683 19.3809C36.003 19.3763 35.5376 19.3841 35.0723 19.3763C35.0388 19.4103 35.0059 19.4449 34.9731 19.4796C34.8437 19.4508 34.7116 19.4364 34.5796 19.4273C34.3271 19.3181 33.9986 19.3214 33.7597 19.4626C33.7693 19.4423 33.7899 19.4018 33.7994 19.3815C32.7031 19.3783 31.6062 19.3802 30.5099 19.3809C30.1568 19.3606 29.8228 19.6652 29.8481 20.0071ZM40.8179 19.4593C40.6023 19.5887 40.4655 19.8267 40.4778 20.0711C40.4771 20.7699 40.4757 21.4693 40.4785 22.1681C40.4573 22.5335 40.8028 22.8636 41.1861 22.8433C43.1494 22.8453 45.1127 22.8472 47.0761 22.8427C47.46 22.8623 47.7837 22.5283 47.7754 22.1687C47.7809 21.47 47.7789 20.7699 47.7761 20.0711C47.7946 19.7142 47.4654 19.343 47.0781 19.3796C45.9722 19.3783 44.8664 19.3855 43.7612 19.3757C43.729 19.4109 43.6975 19.4462 43.6661 19.4822C43.536 19.4495 43.4026 19.4364 43.2698 19.4273C43.0132 19.3109 42.6936 19.3371 42.4425 19.4528C42.4541 19.4351 42.4774 19.4005 42.489 19.3835C42.1003 19.373 41.7116 19.3841 41.3236 19.3783C41.1539 19.3855 40.9637 19.356 40.8179 19.4593Z" fill="#2E2F2F" stroke="#2E2F2F" stroke-width="0.5"/>
<path d="M29.8481 20.0071C29.8228 19.6653 30.1568 19.3607 30.5099 19.3809C31.6062 19.3803 32.7032 19.3783 33.7994 19.3816C33.7899 19.4018 33.7693 19.4424 33.7598 19.4626C33.6071 19.6901 33.4299 19.9235 33.419 20.2045C33.3971 20.5843 33.3717 20.9909 33.5688 21.3373C33.7255 21.6249 33.9856 21.9256 34.349 21.9498C34.7541 21.993 35.1161 21.7034 35.2728 21.3661C35.448 20.9765 35.5205 20.5327 35.4083 20.1176C35.3501 19.8509 35.2092 19.6117 35.0723 19.3763C35.5376 19.3842 36.003 19.3763 36.4683 19.3809C36.8358 19.3678 37.167 19.7234 37.1246 20.0712C37.1205 20.7915 37.1253 21.5119 37.1225 22.2322C37.1335 22.5878 36.7564 22.8662 36.3992 22.844C34.4598 22.846 32.5191 22.8453 30.579 22.8447C30.2184 22.8715 29.8379 22.5924 29.8481 22.2328C29.8447 21.4909 29.8454 20.749 29.8481 20.0071Z" fill="#FFAE6E" stroke="#FFAE6E" stroke-width="0.5"/>
<path d="M33.7598 19.4627C33.9986 19.3215 34.3271 19.3182 34.5796 19.4274C34.4852 19.5365 34.3681 19.6372 34.3182 19.7745C34.2744 20.0307 34.2648 20.3366 34.4811 20.5294C34.5666 20.6412 34.7219 20.6484 34.852 20.619C35.1017 20.4935 35.2126 20.2 35.1804 19.9431C35.1476 19.7758 35.0538 19.6287 34.9731 19.4797C35.0059 19.445 35.0388 19.4104 35.0723 19.3764C35.2092 19.6117 35.3501 19.851 35.4083 20.1176C35.5205 20.5327 35.448 20.9766 35.2728 21.3661C35.1161 21.7034 34.7541 21.993 34.349 21.9499C33.9856 21.9257 33.7256 21.625 33.5688 21.3374C33.3718 20.9909 33.3971 20.5844 33.419 20.2046C33.4299 19.9235 33.6072 19.6901 33.7598 19.4627Z" fill="#172627" stroke="#172627" stroke-width="0.5"/>
<path d="M40.8179 19.4594C40.9636 19.3561 41.1539 19.3855 41.3236 19.3783C41.7116 19.3842 42.1003 19.3731 42.489 19.3836C42.4774 19.4006 42.4541 19.4352 42.4425 19.4529C42.14 19.8679 41.9785 20.3994 42.1023 20.9001C42.1756 21.2472 42.3323 21.6093 42.6464 21.8178C42.9646 22.0381 43.4525 21.9891 43.7003 21.6903C44.1423 21.27 44.1581 20.6281 44.0759 20.0752C44.0267 19.8222 43.8816 19.6012 43.7612 19.3757C44.8663 19.3855 45.9722 19.3783 47.0781 19.3797C47.4654 19.343 47.7946 19.7143 47.7761 20.0712C47.7788 20.77 47.7809 21.4701 47.7754 22.1688C47.7836 22.5283 47.4599 22.8624 47.076 22.8428C45.1127 22.8473 43.1494 22.8454 41.186 22.8434C40.8028 22.8637 40.4572 22.5336 40.4784 22.1682C40.4757 21.4694 40.4771 20.77 40.4778 20.0712C40.4654 19.8268 40.6023 19.5888 40.8179 19.4594Z" fill="#FFAE6E" stroke="#FFAE6E" stroke-width="0.5"/>
<path d="M42.4425 19.4529C42.6936 19.3372 43.0132 19.311 43.2698 19.4274C43.1521 19.562 42.9913 19.6941 42.9934 19.885C42.9824 20.0941 42.9646 20.3406 43.1378 20.5C43.2301 20.6216 43.3944 20.6595 43.5429 20.6197C43.7475 20.5112 43.8515 20.2876 43.8809 20.0745C43.8953 19.8575 43.7605 19.6692 43.6661 19.4823C43.6975 19.4463 43.729 19.411 43.7612 19.3758C43.8816 19.6013 44.0267 19.8222 44.076 20.0752C44.1581 20.6282 44.1423 21.2701 43.7003 21.6904C43.4525 21.9891 42.9646 22.0381 42.6464 21.8178C42.3323 21.6093 42.1756 21.2472 42.1024 20.9001C41.9785 20.3994 42.14 19.868 42.4425 19.4529Z" fill="#172527" stroke="#172527" stroke-width="0.5"/>
<path d="M34.5796 19.4274C34.7116 19.4365 34.8437 19.4509 34.973 19.4797C35.0538 19.6287 35.1475 19.7758 35.1804 19.9431C35.2125 20.2 35.1017 20.4935 34.8519 20.619C34.7219 20.6484 34.5665 20.6412 34.481 20.5294C34.2648 20.3366 34.2743 20.0307 34.3181 19.7745C34.3681 19.6372 34.4851 19.5365 34.5796 19.4274Z" fill="white" stroke="white" stroke-width="0.5"/>
<path d="M43.2698 19.4274C43.4025 19.4365 43.536 19.4496 43.666 19.4823C43.7604 19.6692 43.8952 19.8575 43.8809 20.0745C43.8514 20.2876 43.7474 20.5111 43.5428 20.6196C43.3943 20.6595 43.2301 20.6216 43.1377 20.5C42.9645 20.3405 42.9823 20.0941 42.9933 19.8849C42.9912 19.6941 43.1521 19.562 43.2698 19.4274Z" fill="white" stroke="white" stroke-width="0.5"/>
<path d="M28.515 22.8003C28.6122 21.6976 28.5499 20.5889 28.5766 19.4843C28.7627 19.6503 29.0173 19.6516 29.2568 19.6503C29.1419 20.2654 29.2028 20.8916 29.1877 21.5119C29.1891 21.959 29.1398 22.4434 29.3937 22.8428C29.6298 23.1997 30.0541 23.4677 30.5078 23.4481C32.2884 23.4448 34.0697 23.4467 35.8503 23.4467C36.2431 23.4428 36.6551 23.4932 37.0226 23.3278C37.0458 23.3382 37.0924 23.3585 37.1156 23.3683C37.0698 23.9507 36.8556 24.5253 36.9863 25.1136C36.2609 24.9737 35.5273 24.7547 34.7793 24.8737C34.1874 24.9404 33.6215 25.2744 33.3539 25.7914C33.0555 26.3948 33.0685 27.0746 32.9823 27.723C32.944 27.925 32.9036 28.1949 32.6675 28.2708C32.4663 28.3035 32.285 28.1747 32.1255 28.0747C31.4186 27.5596 30.7993 26.9419 30.2409 26.2823C29.5518 25.46 28.9934 24.5207 28.7162 23.4951C28.6567 23.2618 28.5882 23.0304 28.515 22.8003Z" fill="#FFAE6E" stroke="#FFAE6E" stroke-width="0.5"/>
<path d="M49.0086 22.1681C49.0038 21.8975 49.0017 21.6242 49.0722 21.3595C49.0969 21.8785 49.0182 22.4021 49.1112 22.9178C49.1701 23.2473 49.3295 23.5486 49.4287 23.8669C49.3309 24.4147 49.1714 24.9559 48.999 25.4874C48.7855 26.1116 48.5295 26.7404 48.0868 27.2523C47.358 28.0674 46.456 28.7184 45.5363 29.3231C44.323 30.1055 43.0392 30.7905 41.6979 31.3527C41.546 31.4167 41.3879 31.4671 41.2298 31.5148C41.1703 31.6324 41.1347 31.7586 41.1032 31.8854C39.972 32.443 38.8361 32.992 37.696 33.5326C37.2648 33.7333 36.8508 33.9712 36.3964 34.1222C36.3643 33.228 36.4245 32.3312 36.3752 31.4363C35.2105 30.9964 34.095 30.4428 33.0152 29.8381C31.7923 29.1276 30.5728 28.3667 29.6066 27.3451C29.172 26.9078 28.938 26.3378 28.7121 25.7861C28.4446 25.0592 28.2557 24.3069 28.0969 23.5525L28.1257 23.514C28.3289 23.3192 28.4624 23.0708 28.515 22.8002C28.5883 23.0303 28.6567 23.2617 28.7162 23.495C28.9934 24.5206 29.5518 25.4599 30.2409 26.2822C30.7993 26.9418 31.4186 27.5595 32.1256 28.0746C32.285 28.1746 32.4663 28.3033 32.6675 28.2707C32.9036 28.1948 32.944 27.9249 32.9823 27.7229C33.0686 27.0745 33.0556 26.3946 33.3539 25.7913C33.6215 25.2743 34.1874 24.9403 34.7794 24.8736C35.5273 24.7546 36.2609 24.9736 36.9863 25.1135C36.8556 24.5252 37.0698 23.9506 37.1157 23.3682C37.0924 23.3584 37.0459 23.3381 37.0226 23.3277C37.1841 23.2303 37.3388 23.1218 37.4866 23.0061C37.3908 23.3996 37.2553 23.7885 37.2211 24.1931C37.1909 24.4833 37.3244 24.7971 37.605 24.9344C38.047 25.1638 38.561 25.3076 39.0667 25.2396C39.4978 25.1645 39.7941 24.8239 40.1739 24.6428C40.2759 24.8873 40.0282 25.0756 39.9317 25.2808C40.7125 25.1239 41.3893 24.6631 42.1838 24.5507C42.7011 24.467 43.315 24.4768 43.7119 24.8527C44.0643 25.1651 44.141 25.6501 44.1437 26.0868C44.1239 26.881 43.9322 27.6601 43.6941 28.4177C43.6428 28.6191 43.523 28.8694 43.729 29.0302C44.0985 28.9178 44.4161 28.7008 44.7343 28.4949C45.4638 28.0255 46.0235 27.3653 46.5642 26.713C47.4196 25.6292 48.1374 24.4467 48.7006 23.2009C48.8368 22.8681 49.0202 22.5354 49.0086 22.1681ZM42.7189 25.1998C41.7164 25.439 40.8446 26.0476 39.8194 26.2221C39.196 26.3142 38.5596 26.3907 37.9286 26.3182C37.1129 26.2051 36.3581 25.8711 35.578 25.6325C35.2153 25.5305 34.7937 25.4076 34.4358 25.5861C34.1628 25.705 34.1341 26.0194 34.0526 26.2606C33.8548 26.9764 33.5845 27.7405 33.8316 28.4772C34.0184 29.0452 34.5145 29.4479 35.0305 29.7466C35.606 30.0944 36.3157 30.0473 36.9583 30.1865C37.2997 30.2715 37.6104 30.1009 37.8821 29.9251C38.2777 29.6826 38.7888 29.5525 39.2453 29.7054C39.6203 29.8218 39.8263 30.2258 40.2348 30.2722C40.5879 30.297 40.9096 30.1166 41.2107 29.9643C41.6822 29.6924 42.1509 29.3865 42.4808 28.9563C42.9133 28.436 43.1453 27.7981 43.3478 27.1712C43.469 26.7718 43.6072 26.3718 43.6441 25.9554C43.6558 25.739 43.6489 25.4939 43.4963 25.32C43.2938 25.1252 42.9769 25.1533 42.7189 25.1998Z" fill="#E18D54" stroke="#E18D54" stroke-width="0.5"/>
<path d="M42.719 25.1998C42.9769 25.1534 43.2938 25.1253 43.4964 25.3201C43.649 25.494 43.6558 25.7391 43.6442 25.9555C43.6072 26.3719 43.469 26.7719 43.3479 27.1713C43.1453 27.7981 42.9133 28.4361 42.4808 28.9564C42.151 29.3865 41.6822 29.6925 41.2107 29.9644C40.9096 30.1167 40.588 30.2971 40.2349 30.2723C39.8263 30.2258 39.6203 29.8219 39.2453 29.7055C38.7889 29.5526 38.2777 29.6826 37.8821 29.9252C37.6105 30.101 37.2998 30.2716 36.9583 30.1866C36.3157 30.0474 35.6061 30.0945 35.0305 29.7467C34.5146 29.448 34.0184 29.0453 33.8316 28.4773C33.5846 27.7406 33.8549 26.9765 34.0526 26.2607C34.1341 26.0195 34.1628 25.7051 34.4359 25.5861C34.7938 25.4077 35.2153 25.5306 35.578 25.6326C36.3581 25.8711 37.1129 26.2052 37.9287 26.3183C38.5596 26.3908 39.196 26.3143 39.8195 26.2222C40.8446 26.0476 41.7164 25.4391 42.719 25.1998ZM42.5821 25.9143C42.0032 26.0228 41.6329 26.5052 41.1156 26.734C40.5394 26.9863 39.9023 27.0667 39.2795 27.1471C38.4604 27.2386 37.6303 27.2961 36.8077 27.2118C36.3164 27.1641 35.8141 27.0909 35.3707 26.8719C35.0524 26.7137 34.7917 26.4209 34.4112 26.4032C34.2689 26.3777 34.1265 26.4215 34.0492 26.5411C34.1697 26.6987 34.3147 26.8516 34.5228 26.8967C35.4801 27.1536 36.4122 27.5779 37.4243 27.5752C38.136 27.5432 38.8491 27.5112 39.5539 27.4066C40.1096 27.3223 40.6756 27.2634 41.21 27.0856C41.4625 27.002 41.6535 26.8183 41.867 26.6732C42.203 26.4451 42.6656 26.5411 43.0002 26.3124C43.0748 26.2522 43.1884 26.164 43.1302 26.0594C43.0632 25.8326 42.7669 25.8725 42.5821 25.9143ZM36.5963 28.3734C36.6195 28.5636 36.8098 28.6603 36.9658 28.7473C37.3538 28.9427 37.7507 29.146 38.1914 29.2061C38.5357 29.2519 38.8901 29.2538 39.2309 29.1819C39.5847 29.097 39.9105 28.9329 40.2287 28.7662C40.3758 28.6793 40.5421 28.5995 40.6311 28.4511C40.614 28.4394 40.5791 28.4165 40.5613 28.4047C40.1315 28.4577 39.7456 28.6825 39.3144 28.7394C38.6944 28.8793 38.0491 28.7911 37.4483 28.6159C37.1629 28.5381 36.9001 28.3773 36.5963 28.3734Z" fill="#FFAE6E" stroke="#FFAE6E" stroke-width="0.5"/>
<path d="M42.5821 25.9143C42.7668 25.8725 43.0631 25.8326 43.1302 26.0594C43.1884 26.164 43.0748 26.2522 43.0002 26.3124C42.6655 26.5412 42.2029 26.4451 41.8669 26.6732C41.6534 26.8183 41.4625 27.002 41.21 27.0857C40.6755 27.2635 40.1096 27.3223 39.5539 27.4066C38.8491 27.5112 38.136 27.5432 37.4243 27.5753C36.4122 27.5779 35.4801 27.1536 34.5227 26.8968C34.3147 26.8517 34.1696 26.6987 34.0492 26.5412C34.1265 26.4215 34.2689 26.3778 34.4112 26.4032C34.7917 26.4209 35.0524 26.7137 35.3706 26.8719C35.8141 27.0909 36.3164 27.1641 36.8077 27.2118C37.6303 27.2961 38.4604 27.2386 39.2795 27.1471C39.9022 27.0667 40.5393 26.9863 41.1156 26.734C41.6329 26.5052 42.0031 26.0228 42.5821 25.9143Z" fill="#E18D54" stroke="#E18D54" stroke-width="0.5"/>
<path d="M36.5963 28.3734C36.9002 28.3773 37.1629 28.5381 37.4483 28.6159C38.0491 28.7911 38.6945 28.8793 39.3145 28.7395C39.7456 28.6826 40.1315 28.4577 40.5613 28.4048C40.5791 28.4166 40.614 28.4394 40.6311 28.4512C40.5421 28.5996 40.3758 28.6793 40.2287 28.7663C39.9105 28.933 39.5848 29.097 39.231 29.182C38.8902 29.2539 38.5357 29.2519 38.1915 29.2062C37.7508 29.146 37.3539 28.9428 36.9658 28.7473C36.8098 28.6604 36.6196 28.5636 36.5963 28.3734Z" fill="#E18D54" stroke="#E18D54" stroke-width="0.5"/>
<path d="M36.495 38.0757C36.9617 38.0436 37.4291 38.0691 37.8965 38.0587C38.472 38.0646 39.0475 38.0639 39.6224 38.0574C40.0918 38.0672 40.562 38.0495 41.0307 38.0698C41.2381 38.7071 41.1313 39.3954 40.8603 39.9987C40.6537 40.4517 40.3197 40.8407 39.9337 41.1655C39.8113 41.2773 39.6662 41.3734 39.5806 41.5159C39.5916 41.6891 39.6402 41.8571 39.6778 42.0271C39.8304 42.65 39.8742 43.2919 40.0056 43.9194C40.1555 45.2666 40.3491 46.6118 40.423 47.9662C40.5606 48.8637 40.5647 49.7729 40.668 50.6737C40.7036 51.5202 40.7481 52.3667 40.8063 53.2125C40.8022 54.0505 40.8843 54.8852 40.8809 55.7232C40.8644 56.7168 40.8925 57.7117 40.8583 58.7052C40.8001 59.2804 40.8309 59.8609 40.757 60.4355C40.7111 61.2081 40.6413 61.9775 40.5298 62.7442C40.4087 63.5606 40.2198 64.3659 39.981 65.1582C39.7524 65.6465 39.5779 66.1968 39.144 66.5609C38.8867 66.7779 38.4878 66.6845 38.2729 66.459C37.8842 66.0635 37.7227 65.5268 37.5147 65.0346C37.3949 64.5986 37.2875 64.1594 37.1786 63.7208C37.024 63.1024 36.9795 62.4664 36.8789 61.8402C36.6613 59.4007 36.5833 56.9488 36.6832 54.5028C36.7769 51.5882 36.9891 48.6774 37.3087 45.7778C37.36 45.179 37.4873 44.5855 37.4729 43.9822C37.5277 43.841 37.5776 43.6965 37.5947 43.5462C37.6926 42.8637 37.7856 42.1781 37.9752 41.512C37.4551 41.0518 36.9015 40.5857 36.6401 39.9366C36.3739 39.3562 36.3376 38.6868 36.495 38.0757Z" fill="#FF5353" stroke="#FF5353" stroke-width="0.5"/>
<path d="M36.3752 31.4364C36.4244 32.3313 36.3642 33.2281 36.3964 34.1223C36.8508 33.9713 37.2648 33.7334 37.6959 33.5327C38.836 32.9921 39.972 32.443 41.1032 31.8855C41.1347 31.7587 41.1703 31.6325 41.2298 31.5148C41.1887 32.1881 41.2093 32.864 41.214 33.5386C41.1908 34.321 41.5535 35.1263 42.2221 35.5937C42.2364 35.6466 42.2522 35.7002 42.2672 35.7538C41.5295 36.6605 40.4018 37.1729 39.2781 37.5063C39.3547 37.7096 39.4923 37.8828 39.6223 38.0573C39.0475 38.0639 38.472 38.0645 37.8964 38.0586C38.0278 37.888 38.1503 37.7122 38.2625 37.5298C37.4126 37.2344 36.5483 36.9174 35.8544 36.3441C35.6361 36.1447 35.3336 35.965 35.2974 35.6525C35.9434 35.2276 36.3841 34.491 36.3677 33.734C36.3437 32.9679 36.3533 32.2012 36.3752 31.4364Z" fill="#FFAE6E" stroke="#FFAE6E" stroke-width="0.5"/>
<path d="M32.3645 34.2642C32.9078 33.8034 33.6168 33.5132 34.3463 33.4942C34.4962 33.4903 34.6556 33.4733 34.7938 33.5445C34.7849 34.0132 34.7035 34.5094 34.9198 34.9499C35.0073 35.2029 35.2345 35.3918 35.2975 35.6526C35.3338 35.9651 35.6362 36.1448 35.8545 36.3442C36.5485 36.9174 37.4128 37.2345 38.2627 37.5299C38.1505 37.7123 38.028 37.8881 37.8966 38.0587C37.4292 38.0692 36.9618 38.0437 36.4951 38.0757C36.3377 38.6869 36.3739 39.3563 36.6402 39.9367C36.5984 40.2158 36.4041 40.4296 36.1858 40.6034C35.9791 40.3799 35.6965 40.2426 35.446 40.0707C34.2258 39.2562 33.0488 38.3058 32.3118 37.0482C32.0059 36.5449 31.7623 35.9696 31.8184 35.3774C31.8608 34.9604 32.0552 34.561 32.3645 34.2642Z" fill="#00DDD5" stroke="#00DDD5" stroke-width="0.5"/>
<path d="M42.7252 33.5504C43.031 33.4308 43.3828 33.5073 43.6989 33.555C44.2396 33.6648 44.7432 33.9093 45.1538 34.2629C45.6137 34.6812 45.8183 35.3329 45.6876 35.9251C45.5802 36.4526 45.3003 36.9292 45.006 37.3802C44.2142 38.5248 43.0913 39.4163 41.9115 40.1785C41.6816 40.3341 41.3873 40.4544 41.2881 40.7276C41.2244 40.4465 40.9938 40.2472 40.8604 39.9988C41.1314 39.3954 41.2381 38.7071 41.0308 38.0698C40.562 38.0495 40.0919 38.0672 39.6224 38.0574C39.4924 37.8829 39.3548 37.7096 39.2782 37.5063C40.4019 37.173 41.5296 36.6605 42.2673 35.7539C42.2523 35.7003 42.2365 35.6467 42.2222 35.5937C42.4329 35.28 42.6533 34.959 42.7252 34.5858C42.7655 34.242 42.7409 33.8949 42.7252 33.5504Z" fill="#00DDD5" stroke="#00DDD5" stroke-width="0.5"/>
<path d="M32.0962 34.4014C32.1763 34.3413 32.2673 34.2949 32.3645 34.2642C32.0552 34.5609 31.8608 34.9603 31.8184 35.3773C31.7623 35.9696 32.0059 36.5448 32.3118 37.0481C33.0488 38.3057 34.2258 39.2562 35.446 40.0706C35.6965 40.2425 35.9791 40.3798 36.1857 40.6034C36.4739 41.3322 36.8057 42.046 37.0432 42.7925C37.191 43.1879 37.2485 43.6148 37.473 43.9821C37.4873 44.5855 37.3601 45.179 37.3087 45.7777C36.9891 48.6774 36.777 51.5881 36.6833 54.5028C36.6429 54.644 36.6005 54.7859 36.5703 54.931C36.2877 54.4924 36.0988 54.008 35.8306 53.5622C35.3386 52.5974 34.7548 51.679 34.1827 50.7554C33.7126 50.0383 33.226 49.3278 32.6779 48.6617C32.2132 48.2113 31.8225 47.6904 31.3003 47.2949C30.7631 46.8373 30.1418 46.4647 29.4602 46.2392C29.2535 46.168 28.9873 46.0725 28.9654 45.8294C29.0119 45.6464 29.1454 45.4993 29.2713 45.3601C29.8133 44.8103 30.4134 44.3122 30.9171 43.7285C31.2825 43.337 31.7718 43.0598 32.0914 42.6271C32.1961 42.4787 32.2365 42.2382 32.0764 42.1114C31.9114 41.9989 31.7068 41.963 31.5145 41.9166C30.6119 41.7368 29.7195 41.5159 28.8306 41.2825C28.4919 41.2002 28.1483 41.0518 27.7918 41.1256C27.7884 41.1583 27.7808 41.2237 27.7774 41.257C27.5612 40.2622 27.1177 39.2627 26.2917 38.5921C26.3212 38.5992 26.38 38.6149 26.4095 38.6221C27.2224 37.9632 28.0895 37.3677 28.9264 36.737C29.9837 35.9591 31.0423 35.1832 32.0962 34.4014Z" fill="#F2F2F2" stroke="#C8C8C8" stroke-linecap="round" stroke-linejoin="round"/>
<path d="M45.1538 34.2628C45.2503 34.2948 45.3434 34.338 45.4255 34.3994C46.9296 35.5093 48.4365 36.6167 49.942 37.7253C50.3998 38.071 50.8898 38.3855 51.2847 38.7999C51.4777 38.9894 51.5865 39.2385 51.6809 39.4836C51.6686 39.783 51.5762 40.0863 51.3442 40.2994C50.8672 40.7694 50.1631 40.8857 49.5287 41.0478C48.6322 41.2929 47.7255 41.5002 46.8236 41.7263C46.4116 41.8276 45.9757 41.8322 45.5767 41.9806C45.4002 42.0401 45.2722 42.2264 45.3174 42.4055C45.3659 42.646 45.5534 42.829 45.7396 42.9846C46.17 43.3337 46.5471 43.7376 46.9543 44.1115C47.2834 44.4083 47.5462 44.7645 47.876 45.0613C48.0697 45.2469 48.2887 45.4143 48.4406 45.6352C48.5809 45.8169 48.431 46.0725 48.234 46.1477C47.9205 46.2797 47.5962 46.3882 47.2875 46.5307C47.2697 46.1601 47.3259 45.7849 47.243 45.4188C47.204 46.0751 47.2212 46.7334 47.1931 47.3903C46.894 47.4053 46.5943 47.4027 46.2953 47.4014C46.2111 47.4119 46.118 47.4138 46.053 47.4733C45.1716 48.2446 44.5359 49.2219 43.8885 50.171C43.2575 51.1358 42.7025 52.1437 42.1448 53.1484C41.7418 53.9929 41.2949 54.8185 40.9226 55.6768L40.8809 55.7232C40.8843 54.8852 40.8022 54.0504 40.8063 53.2124C40.7481 52.3666 40.7036 51.5201 40.668 50.6736C40.5647 49.7729 40.5606 48.8636 40.4231 47.9662C40.3491 46.6118 40.1555 45.2665 40.0056 43.9194C40.1158 43.8167 40.2109 43.6971 40.2431 43.5513C40.5113 42.5846 40.8761 41.6453 41.288 40.7275C41.3873 40.4543 41.6815 40.334 41.9115 40.1785C43.0912 39.4163 44.2142 38.5247 45.006 37.3801C45.3002 36.9291 45.5801 36.4526 45.6876 35.9251C45.8183 35.3329 45.6137 34.6812 45.1538 34.2628ZM41.1628 45.4149C41.145 46.0568 41.1293 46.7033 41.1703 47.3445C43.1679 47.3609 45.1661 47.3543 47.1637 47.3491C47.1951 46.7053 47.1835 46.0581 47.1671 45.413C45.1661 45.4058 43.1638 45.4025 41.1628 45.4149Z" fill="#F2F2F2" stroke="#C8C8C8" stroke-linecap="round" stroke-linejoin="round"/>
<path d="M19.9042 37.6985C20.5687 37.7142 21.2256 37.6038 21.8901 37.6129C22.391 37.5724 22.8933 37.5554 23.3963 37.5489C24.4591 37.4783 25.5205 37.9058 26.2917 38.5921C27.1177 39.2628 27.5611 40.2622 27.7774 41.2571C28.0997 42.7906 28.42 44.3247 28.7245 45.8621C29.196 48.014 29.6428 50.1704 30.1 52.3255C30.2779 53.0903 30.3929 53.8701 30.6317 54.6212C29.8878 54.7101 29.1419 54.7859 28.3939 54.8264C27.7979 54.8839 27.1916 54.8938 26.612 55.0493C26.3156 55.1278 26.0453 55.3422 25.9742 55.637C25.9167 55.901 26.1309 56.1494 26.3868 56.224C26.8392 56.3606 27.3223 56.3357 27.7883 56.4024C27.4126 56.558 26.9753 56.4906 26.6113 56.6789C26.3581 56.7979 26.1548 57.0541 26.1788 57.3326C26.2383 57.6444 26.5805 57.7934 26.8782 57.83C27.4263 57.9058 27.9799 57.9496 28.5336 57.9745C28.0395 58.0294 27.5365 58.0411 27.0527 58.1627C26.7824 58.2287 26.5216 58.4046 26.4368 58.6686C26.3957 58.8366 26.3985 59.0425 26.5387 59.17C26.7112 59.34 26.9685 59.3818 27.2032 59.4164C27.711 59.4844 28.2236 59.5302 28.7375 59.5256C28.5315 59.5955 28.3194 59.6576 28.1312 59.7668C27.7897 59.9753 27.7438 60.5309 28.0956 60.7525C28.4261 60.9656 28.849 60.9369 29.2281 60.997C30.1356 61.1297 31.0553 61.1061 31.9709 61.1016C32.1386 62.0226 32.3281 62.9403 32.5293 63.8554C32.7757 64.6869 32.8749 65.5635 32.7702 66.4237C32.6676 67.0675 32.3952 67.7356 31.8334 68.1369C31.6212 68.3003 31.3701 68.4082 31.1107 68.4827C31.1121 68.4945 31.1155 68.5167 31.1169 68.5278C30.4237 68.6769 29.7113 68.6134 29.0071 68.6213C27.4065 68.6265 25.8058 68.6193 24.2052 68.6206C23.2985 68.571 22.3876 68.6148 21.4795 68.5971C19.6544 68.603 17.8293 68.5853 16.0042 68.5919C15.517 68.5899 15.0373 68.5017 14.5562 68.4435C13.5345 68.2415 12.5374 67.746 11.9154 66.9263C11.5246 66.3871 11.3864 65.7315 11.2132 65.1085C12.1508 64.7229 13.0171 64.1973 13.8602 63.6509C14.3262 63.3371 14.7875 63.0155 15.2227 62.6632C15.4136 62.4984 15.6299 62.3023 15.6313 62.0376C15.6532 61.7069 15.298 61.4604 14.9757 61.4676C14.4987 61.4467 14.1168 61.7631 13.6816 61.8964C14.1675 61.5121 14.7307 61.2173 15.1687 60.7793C15.35 60.6094 15.4335 60.3466 15.3438 60.1145C15.1728 59.8126 14.7587 59.7139 14.4309 59.8126C13.9998 59.9335 13.6125 60.159 13.2026 60.3289C13.618 59.9622 14.1305 59.7054 14.511 59.302C14.6855 59.1308 14.7471 58.851 14.6342 58.6353C14.4398 58.334 14.019 58.2895 13.6912 58.3843C13.2416 58.5105 12.8358 58.7425 12.4211 58.9451C11.7949 59.2975 11.1373 59.5968 10.4701 59.8701C11.4918 59.0269 12.4745 58.134 13.3319 57.1345C13.5051 56.9273 13.6556 56.6586 13.5646 56.388C13.4147 56.0756 12.9911 55.9847 12.6743 56.0998C12.2486 56.2501 11.9003 56.5397 11.5397 56.7939C10.789 57.3633 10.0389 57.9333 9.26839 58.4784C8.91254 57.2803 8.5738 56.0769 8.19605 54.8839C8.07082 54.312 7.8532 53.7649 7.71976 53.1949C7.12918 51.2437 6.56188 49.2866 5.99731 47.3289C5.76053 46.6805 5.64351 45.9994 5.41221 45.3496C5.1987 44.5607 4.87569 43.7985 4.75252 42.9893C4.62865 42.3748 4.66698 41.7441 4.67929 41.1224C4.76826 40.2975 5.16859 39.4693 5.88165 38.9719C6.24435 38.7222 6.66726 38.5575 7.0977 38.4496C8.3726 38.277 9.6653 38.2979 10.9464 38.1875C11.4747 38.1273 12.0132 38.2064 12.5347 38.0881C13.2566 38.0247 13.9827 38.0293 14.704 37.9626C15.0927 37.9685 15.4787 37.9371 15.8639 37.8927C16.642 37.8953 17.4173 37.8312 18.192 37.7698C18.7634 37.7665 19.3355 37.7528 19.9042 37.6985Z" fill="#003342" stroke="#003342" stroke-width="0.5"/>
<path d="M36.6401 39.9366C36.9015 40.5857 37.4551 41.0518 37.9752 41.512C37.7856 42.1781 37.6926 42.8637 37.5947 43.5462C37.5776 43.6965 37.5276 43.841 37.4729 43.9822C37.2484 43.6148 37.191 43.188 37.0431 42.7925C36.8057 42.046 36.4738 41.3322 36.1857 40.6034C36.404 40.4295 36.5983 40.2158 36.6401 39.9366Z" fill="#00C2B9" stroke="#00C2B9" stroke-width="0.5"/>
<path d="M39.9338 41.1654C40.3198 40.8406 40.6537 40.4516 40.8604 39.9987C40.9938 40.247 41.2244 40.4464 41.2881 40.7275C40.8761 41.6452 40.5114 42.5845 40.2431 43.5513C40.211 43.6971 40.1158 43.8167 40.0057 43.9193C39.8743 43.2918 39.8305 42.6499 39.6779 42.027C39.6402 41.857 39.5916 41.689 39.5807 41.5158C39.6662 41.3733 39.8113 41.2772 39.9338 41.1654Z" fill="#00C2B9" stroke="#00C2B9" stroke-width="0.5"/>
<path d="M27.7917 41.1257C28.1482 41.0519 28.4918 41.2002 28.8305 41.2826C29.7195 41.516 30.6118 41.7369 31.5145 41.9167C31.7067 41.9631 31.9114 41.999 32.0763 42.1114C32.2364 42.2383 32.196 42.4788 32.0913 42.6272C31.7718 43.0599 31.2825 43.3371 30.917 43.7286C30.4134 44.3123 29.8132 44.8104 29.2712 45.3601C29.1453 45.4994 29.0119 45.6464 28.9653 45.8295C28.9872 46.0726 29.2534 46.1681 29.4601 46.2393C30.1417 46.4648 30.7631 46.8374 31.3003 47.295C31.8224 47.6904 32.2131 48.2114 32.6778 48.6618C33.226 49.3279 33.7125 50.0384 34.1826 50.7555C34.7547 51.6791 35.3385 52.5975 35.8305 53.5623C36.0988 54.0081 36.2876 54.4924 36.5703 54.931C36.5976 55.4605 36.5785 55.9919 36.586 56.5227C35.9503 56.5423 35.3296 56.3769 34.6979 56.3351C34.0957 56.2959 33.5086 56.1606 32.9139 56.0756C32.801 56.0488 32.6901 56.0763 32.5943 56.1344C32.5711 56.1233 32.5245 56.1011 32.5019 56.09C32.7332 55.8586 32.957 55.5782 32.9392 55.2402C32.9529 54.9167 32.6634 54.6591 32.3466 54.6062C31.78 54.4996 31.2024 54.6212 30.6317 54.6212C30.3928 53.8701 30.2779 53.0903 30.0999 52.3255C29.6428 50.1704 29.196 48.014 28.7245 45.8621C28.4199 44.3247 28.0997 42.7906 27.7773 41.2571C27.7808 41.2238 27.7883 41.1584 27.7917 41.1257Z" fill="#F2F2F2" stroke="#C8C8C8" stroke-linecap="round" stroke-linejoin="round"/>
<path d="M41.1628 45.415C43.1638 45.4025 45.1661 45.4058 47.1671 45.413C47.1835 46.0582 47.1952 46.7053 47.1637 47.3491C45.1661 47.3544 43.1679 47.3609 41.1703 47.3446C41.1293 46.7033 41.145 46.0569 41.1628 45.415Z" fill="#DD2C08" stroke="#DD2C08" stroke-width="0.5"/>
<path d="M46.053 47.4734C46.118 47.4139 46.2111 47.4119 46.2953 47.4015C46.3309 47.5041 46.3671 47.608 46.413 47.7087C46.9618 48.7748 47.3751 49.9109 47.5839 51.0836C47.6427 51.6261 47.7371 52.1745 47.6578 52.7203C47.5743 53.3727 47.4196 54.0473 47.0083 54.5891C46.7873 54.8951 46.5697 55.2134 46.2542 55.4389C45.16 56.2952 43.7393 56.6639 42.3501 56.7534C41.88 56.7711 41.3832 56.9044 40.9363 56.7031C40.9315 56.3606 40.9383 56.018 40.9226 55.6768C41.2949 54.8186 41.7417 53.993 42.1448 53.1485C42.7025 52.1438 43.2575 51.1359 43.8885 50.1711C44.5359 49.2219 45.1716 48.2447 46.053 47.4734Z" fill="#F2F2F2" stroke="#C8C8C8" stroke-linecap="round" stroke-linejoin="round"/>
<path d="M28.3939 54.8264C29.1419 54.7859 29.8878 54.7101 30.6317 54.6212C31.2024 54.6212 31.78 54.4996 32.3466 54.6061C32.6634 54.6591 32.9529 54.9166 32.9392 55.2402C32.957 55.5781 32.7332 55.8585 32.5019 56.0899C32.5245 56.1011 32.571 56.1233 32.5943 56.1344C32.8468 56.2592 33.1555 56.4279 33.1466 56.7416C33.2047 57.1149 32.9413 57.4149 32.6908 57.6646C32.9194 57.7803 33.1986 57.8699 33.3245 58.1045C33.4011 58.2974 33.3874 58.5203 33.3218 58.715C33.2129 58.9634 32.9727 59.1236 32.7763 59.306C33.0241 59.355 33.3272 59.3739 33.4757 59.6008C33.757 60.0171 33.5442 60.5786 33.1575 60.8636C32.7935 61.046 32.3753 61.0872 31.9709 61.1016C31.0553 61.1061 30.1355 61.1297 29.2281 60.997C28.849 60.9368 28.4261 60.9656 28.0955 60.7525C27.7438 60.5309 27.7897 59.9753 28.1311 59.7668C28.3193 59.6576 28.5315 59.5955 28.7374 59.5256C28.2235 59.5302 27.711 59.4844 27.2032 59.4164C26.9685 59.3818 26.7112 59.3399 26.5387 59.17C26.3984 59.0425 26.3957 58.8366 26.4367 58.6686C26.5216 58.4046 26.7823 58.2287 27.0526 58.1627C27.5365 58.0411 28.0394 58.0294 28.5335 57.9744C27.9799 57.9496 27.4263 57.9058 26.8781 57.83C26.5804 57.7934 26.2383 57.6443 26.1787 57.3325C26.1548 57.0541 26.358 56.7979 26.6112 56.6789C26.9753 56.4906 27.4126 56.558 27.7883 56.4024C27.3223 56.3357 26.8391 56.3606 26.3868 56.2239C26.1308 56.1494 25.9167 55.901 25.9741 55.637C26.0453 55.3422 26.3156 55.1277 26.6119 55.0493C27.1916 54.8937 27.7979 54.8839 28.3939 54.8264Z" fill="#FFAE6E" stroke="#FFAE6E" stroke-width="0.5"/>
<path d="M12.6743 56.0996C12.9911 55.9846 13.4147 56.0754 13.5646 56.3879C13.6556 56.6585 13.5051 56.9272 13.3319 57.1344C12.4745 58.1338 11.4918 59.0267 10.4701 59.87C11.1373 59.5967 11.7949 59.2973 12.4211 58.945C12.8358 58.7424 13.2416 58.5103 13.6912 58.3842C14.019 58.2894 14.4399 58.3338 14.6342 58.6352C14.7471 58.8509 14.6855 59.1307 14.511 59.3019C14.1305 59.7052 13.618 59.9621 13.2026 60.3288C13.6125 60.1589 13.9998 59.9334 14.431 59.8124C14.7588 59.7137 15.1728 59.8124 15.3439 60.1144C15.4335 60.3465 15.35 60.6092 15.1687 60.7792C14.7307 61.2171 14.1675 61.5119 13.6816 61.8963C14.1169 61.763 14.4987 61.4466 14.9757 61.4675C15.298 61.4603 15.6532 61.7067 15.6313 62.0375C15.6299 62.3022 15.4137 62.4983 15.2227 62.663C14.7875 63.0154 14.3263 63.337 13.8602 63.6507C13.0171 64.1972 12.1508 64.7227 11.2133 65.1084C10.854 65.179 10.4283 65.2091 10.1211 64.977C9.85761 64.792 9.65299 64.4528 9.78438 64.1403C9.83981 63.9338 10.0485 63.8279 10.1649 63.6592C9.68995 63.7037 9.1158 63.4494 9.04873 62.9559C8.99193 62.6513 9.22871 62.4173 9.42716 62.2133C9.00699 62.2578 8.57312 62.0355 8.39178 61.6695C8.33566 61.4701 8.33361 61.2309 8.48006 61.0648C8.56354 60.9629 8.65387 60.8674 8.74147 60.77C8.4082 60.7086 8.05851 60.5818 7.89906 60.2719C7.85869 60.034 7.84226 59.7595 8.01471 59.5634C8.35961 59.1313 8.84001 58.8274 9.2684 58.4783C10.039 57.9331 10.789 57.3632 11.5397 56.7938C11.9003 56.5395 12.2486 56.25 12.6743 56.0996Z" fill="#FFAE6E" stroke="#FFAE6E" stroke-width="0.5"/>
<path d="M47.0118 62.765C48.906 62.3637 50.7537 61.6466 52.3071 60.5229C52.2574 60.5589 52.3145 60.8817 52.3209 60.9408C52.3352 61.0732 52.3587 61.2045 52.3745 61.3368C52.4433 61.913 52.4753 62.4937 52.5316 63.0712C52.6467 64.2514 52.7746 65.4309 52.8655 66.613C52.969 67.9583 53.121 69.3025 53.2515 70.6456C53.3805 71.9748 53.5033 73.3051 53.6335 74.6337C53.6869 75.1794 53.7363 75.7255 53.7864 76.2714C53.8568 77.0392 53.929 77.8069 54.0166 78.5731C54.091 79.2242 54.1581 79.8761 54.21 80.5292C54.2347 80.8391 54.2473 81.1503 54.2742 81.46C54.3025 81.7854 54.3539 82.1084 54.3696 82.4349C54.4449 82.7572 54.41 83.0892 54.4661 83.4141C54.551 84.1939 54.6166 84.979 54.5804 85.7653C54.5687 86.2307 54.3997 86.6909 54.1143 87.0687C53.6894 87.5903 53.0653 87.925 52.4261 88.1538C51.4913 88.4943 50.4895 88.5989 49.5081 88.7421C48.5453 88.9055 47.5647 88.9016 46.5902 88.8767C46.1043 88.8591 45.6314 88.7303 45.1736 88.5813C44.0595 88.2525 43.1966 87.3681 42.7497 86.3595C42.515 85.8431 42.3309 85.3077 42.2167 84.7554C41.9593 83.8605 41.9094 82.9304 41.7862 82.0139C41.65 80.5576 41.3797 79.1163 41.1991 77.6645C41.1238 76.9487 40.9801 76.2408 40.9301 75.5224C40.7912 74.6269 40.7118 73.7242 40.6112 72.8248C40.59 72.1907 40.4935 71.5619 40.4422 70.9305C40.2485 69.0087 40.0987 67.0843 39.981 65.158C40.2198 64.3658 40.4087 63.5604 40.5298 62.744C40.5448 62.8205 40.5613 62.8976 40.5791 62.9754C41.3332 62.9153 42.077 63.1094 42.8312 63.0885C43.5867 63.0676 44.3449 63.1238 45.0983 63.0421C45.7444 63.0127 46.3761 62.8709 47.0118 62.765ZM47.1651 67.7387C46.4281 67.9145 45.9374 68.6852 46.0674 69.3905C46.1598 69.816 46.3158 70.2272 46.4924 70.6272C46.7873 71.2593 47.0433 71.9091 47.3841 72.5216C47.8036 73.3635 48.2935 74.189 48.9676 74.8715C49.3563 75.1989 49.8196 75.5016 50.3561 75.5251C50.7804 75.5487 51.2683 75.4768 51.5455 75.1355C51.8869 74.8035 51.8753 74.2884 51.7336 73.874C51.5482 73.3641 51.2539 72.8994 50.9727 72.434C50.6935 71.994 50.4902 71.5162 50.211 71.0763C49.8545 70.4115 49.5034 69.7441 49.1599 69.0735C48.984 68.6617 48.7945 68.2244 48.4017 67.9577C48.0588 67.6923 47.5832 67.6459 47.1651 67.7387Z" fill="#F2F2F2" stroke="#C8C8C8" stroke-linecap="round" stroke-linejoin="round"/>
<path d="M31.971 61.1016C32.3754 61.0872 32.7935 61.046 33.1576 60.8636C33.1549 60.9179 33.1521 60.9728 33.1494 61.0284C33.8549 61.2343 34.5399 61.501 35.2489 61.6977C35.7916 61.8539 36.3561 61.9611 36.8571 62.2259C36.8653 62.0965 36.9257 62.624 36.9298 62.4959C37.0304 63.1221 37.024 63.1024 37.1787 63.7208C37.2875 64.1594 37.3949 64.5987 37.5147 65.0347C37.3388 67.1323 37.1588 69.2299 36.9214 71.3216C36.8796 71.7785 36.8023 72.2328 36.7804 72.6917C36.6319 74.1336 36.415 75.5684 36.2323 77.0065C35.8881 79.4577 35.4679 81.8978 35.0956 84.3445C34.9095 85.3204 34.7131 86.3375 34.1102 87.1689C33.6811 87.7899 33.033 88.2658 32.3001 88.5155C31.9853 88.6201 31.6644 88.707 31.3407 88.7815C30.2937 88.8809 29.233 88.9155 28.1873 88.7789C27.8109 88.7502 27.4441 88.6573 27.0684 88.6312C26.2692 88.5259 25.4767 88.3429 24.7171 88.0821C24.1094 87.8514 23.5086 87.5272 23.1178 87.0121C22.8099 86.6192 22.6518 86.1244 22.6696 85.6348C22.6491 85.0445 22.7278 84.4595 22.7832 83.8738C22.9087 82.5474 23.0389 81.2219 23.1733 79.8972C23.239 79.2494 23.2604 78.5853 23.3261 77.9325C23.3578 77.617 23.4132 77.3114 23.4405 76.996C23.4696 76.6591 23.5006 76.3224 23.5324 75.9857C23.657 74.6583 23.7894 73.3315 23.9169 72.0044C23.9746 71.4038 24.048 70.8026 24.0622 70.1992C24.1156 69.9273 24.1258 69.6501 24.1628 69.3769C24.1895 69.1259 24.2216 68.8755 24.2607 68.6265C26.2979 68.6324 28.3379 68.6298 30.3765 68.6304C30.4812 68.633 30.5866 68.6409 30.6913 68.6539C30.579 68.7311 30.4394 68.7271 30.3081 68.7311C29.6189 68.7311 28.9305 68.72 28.2414 68.7278C28.1798 69.018 28.0539 69.2899 27.902 69.5468C27.5961 70.1619 27.2258 70.745 26.9247 71.3627C26.5627 72.0896 26.0912 72.7615 25.7196 73.4845C25.5725 73.7878 25.448 74.1146 25.4541 74.4545C25.4651 74.8356 25.6977 75.2134 26.0632 75.3788C26.5928 75.6135 27.2457 75.5749 27.7391 75.2755C28.214 74.9794 28.665 74.6271 28.9784 74.1695C29.6258 73.3145 30.0617 72.3386 30.5024 71.3771C30.7289 70.8692 30.9972 70.3763 31.1607 69.8449C31.2887 69.4174 31.3551 68.933 31.1169 68.5278C31.1156 68.5167 31.1121 68.4944 31.1108 68.4827C31.3701 68.4082 31.6213 68.3003 31.8334 68.1369C32.3952 67.7355 32.6676 67.0675 32.7703 66.4236C32.875 65.5634 32.7757 64.6869 32.5294 63.8554C32.3282 62.9404 32.1386 62.0226 31.971 61.1016V61.1016Z" fill="#F2F2F2" stroke="#C8C8C8" stroke-linecap="round" stroke-linejoin="round"/>
<path d="M37.5146 65.0345C37.7226 65.5268 37.8841 66.0634 38.2728 66.4589C38.4877 66.6844 38.8866 66.7779 39.1439 66.5608C39.5778 66.1968 39.7523 65.6464 39.9809 65.1581C40.0986 67.0844 40.2484 69.0088 40.4421 70.9306C40.4934 71.562 40.5899 72.1908 40.6111 72.8249C39.5497 72.885 38.4822 72.8746 37.4222 72.7974C37.2039 72.7857 36.991 72.7412 36.7803 72.6915C36.8022 72.2327 36.8795 71.7784 36.9212 71.3215C37.1587 69.2297 37.3387 67.1321 37.5146 65.0345Z" fill="#00C2B9" stroke="#00C2B9" stroke-width="0.5"/>
<path d="M47.165 67.7388C47.5832 67.6459 48.0588 67.6923 48.4016 67.9577C48.7944 68.2244 48.984 68.6617 49.1599 69.0735C49.5034 69.7442 49.8545 70.4116 50.211 71.0763C50.4902 71.5163 50.6934 71.9941 50.9726 72.434C51.2539 72.8994 51.5482 73.3642 51.7336 73.874C51.8753 74.2884 51.8869 74.8035 51.5454 75.1356C51.2683 75.4768 50.7803 75.5487 50.3561 75.5251C49.8196 75.5016 49.3563 75.199 48.9676 74.8715C48.2935 74.1891 47.8035 73.3635 47.384 72.5216C47.0432 71.9091 46.7873 71.2594 46.4924 70.6273C46.3158 70.2272 46.1598 69.8161 46.0674 69.3906C45.9374 68.6853 46.428 67.9146 47.165 67.7388Z" fill="white" stroke="white" stroke-width="0.5"/>
<path d="M24.2052 68.6219C25.8058 68.6206 27.4065 68.6278 29.0071 68.6225C29.7113 68.6147 30.4237 68.6781 31.1169 68.5291C31.355 68.9343 31.2887 69.4187 31.1607 69.8462C30.9971 70.3776 30.7289 70.8705 30.5024 71.3784C30.0617 72.3399 29.6258 73.3158 28.9784 74.1708C28.665 74.6284 28.214 74.9807 27.7391 75.2768C27.2457 75.5762 26.5928 75.6147 26.0631 75.3801C25.6977 75.2147 25.465 74.8369 25.4541 74.4558C25.4479 74.1159 25.5725 73.7891 25.7196 73.4858C26.0912 72.7628 26.5627 72.0909 26.9247 71.364C27.2258 70.7463 27.596 70.1632 27.9019 69.5481C28.0539 69.2912 28.1798 69.0193 28.2414 68.7291C28.9305 68.7212 29.6189 68.7323 30.308 68.7323C30.4394 68.7284 30.579 68.7323 30.6913 68.6552C30.5865 68.6421 30.4812 68.6343 30.3765 68.6317C28.3379 68.631 26.2979 68.6336 24.2606 68.6278L24.2052 68.6219Z" fill="white" stroke="white" stroke-width="0.5"/>
<path d="M36.2322 77.0084C36.4149 75.5704 36.6319 74.1356 36.7804 72.6936C36.9911 72.7433 37.2039 72.7877 37.4222 72.7995C38.4823 72.8766 39.5498 72.8871 40.6112 72.827C40.7118 73.7264 40.7912 74.6291 40.9301 75.5246C40.9801 76.243 41.1238 76.9509 41.199 77.6667C41.3797 79.1184 41.65 80.5598 41.7862 82.0161C41.9094 82.9326 41.9593 83.8627 42.2166 84.7576C42.3309 85.3099 42.515 85.8453 42.7497 86.3617C43.1966 87.3703 44.0595 88.2547 45.1736 88.5835C45.6314 88.7325 46.1043 88.8613 46.5902 88.8789C47.5647 88.9037 48.5453 88.9077 49.5081 88.7442C49.4994 88.7458 49.506 89.3454 49.5042 89.4018C49.4971 89.6251 49.4847 89.8483 49.4695 90.0713C49.4392 90.5174 49.3972 90.9628 49.3622 91.4086C49.3448 91.6315 49.329 91.8544 49.3173 92.0776C49.3064 92.2857 49.3171 92.4961 49.2999 92.702C49.238 93.4396 49.1621 94.1774 49.1448 94.9174C49.062 95.6561 49.1277 96.4025 49.0428 97.1418C48.999 98.3616 49.0462 99.5839 48.9703 100.803C48.9723 102.633 48.9285 104.465 49.0079 106.294C49.0147 107.232 49.0147 108.17 49.0305 109.108C49.023 109.673 49.1037 110.234 49.0907 110.799C49.1085 111.28 49.0859 111.762 49.1366 112.242C49.1735 112.77 49.1441 113.301 49.1899 113.828C49.2563 114.344 49.194 114.867 49.2762 115.381C49.3309 116.4 49.4014 117.42 49.5225 118.435C49.7415 119.719 49.9557 121.009 50.3636 122.254C50.4847 122.623 50.6051 122.992 50.7228 123.363C50.664 123.414 50.6236 123.488 50.549 123.52C49.8243 123.822 49.0373 123.938 48.2565 124.015C47.527 123.984 46.7907 124.046 46.0667 123.931C45.4679 123.853 44.8568 123.729 44.3401 123.414C43.976 123.19 43.6934 122.804 43.7146 122.376C43.7557 120.767 43.6243 119.16 43.5545 117.554C43.51 116.655 43.4525 115.757 43.3957 114.859C43.3547 113.657 43.2123 112.461 43.1781 111.26C43.0905 110.516 43.1364 109.767 43.0645 109.023C42.9372 106.501 42.7881 103.979 42.773 101.455C42.6834 100.715 42.7511 99.9702 42.6573 99.2316C42.6211 97.7033 42.4596 96.1816 42.3337 94.6592C42.0675 91.5491 41.7246 88.4462 41.353 85.3459C41.2442 84.5974 41.1819 83.8425 41.0451 83.0979C40.9062 82.2887 40.7494 81.452 40.2862 80.7467C40.0542 80.3787 39.6306 80.1486 39.1899 80.0989C38.6602 80.0414 38.1408 80.1826 37.6241 80.2695C37.3716 80.3094 37.1218 80.3637 36.8748 80.4258C36.8912 80.5487 36.9083 80.6722 36.9186 80.797C36.9282 80.931 36.8365 81.0474 36.8002 81.1742C36.6633 81.5801 36.6271 82.0102 36.6284 82.4351C36.5333 83.5215 36.5853 84.6144 36.5771 85.7034C36.5703 86.8591 36.6469 88.0115 36.623 89.1678C36.6462 89.8221 36.5682 90.4738 36.5785 91.1288C36.5921 92.0012 36.5631 92.874 36.581 93.7465C36.5996 94.6511 36.6223 95.5555 36.6492 96.4598C36.6492 98.2386 36.7732 100.026 36.8554 101.803C36.9294 103.401 36.996 104.999 37.0738 106.597C37.162 108.409 37.2501 110.221 37.3384 112.033C37.3696 112.673 37.4355 113.32 37.4355 113.962C37.5223 115.77 37.6154 117.579 37.7149 119.387C37.7149 120.126 37.7977 120.875 37.8405 121.613C37.8817 122.324 37.9872 123.038 38.0765 123.748C38.0888 123.882 38.0936 124.018 38.1011 124.155L38.0313 124.156C37.5536 124.182 37.0815 124.09 36.6045 124.095C35.9708 124.088 35.3357 124.119 34.7034 124.067C33.9021 123.883 33.0781 123.735 32.3363 123.378C31.899 123.168 31.4734 122.855 31.3126 122.397C31.1887 122.063 31.3365 121.721 31.4015 121.393C31.5206 120.812 31.4843 120.216 31.4946 119.628C31.4871 118.518 31.5227 117.405 31.4289 116.297C31.4399 115.095 31.2934 113.898 31.2749 112.697C31.1894 111.981 31.2284 111.258 31.1791 110.539C31.1155 109.756 31.1169 108.97 31.0525 108.187C30.9923 107.485 31.0053 106.782 30.9526 106.081C30.9034 105.324 30.9321 104.564 30.8794 103.808C30.8596 102.915 30.8753 102.021 30.7918 101.13C30.4681 97.3202 29.8543 93.5408 29.276 89.7606C29.2336 89.4724 29.2144 89.1763 29.094 88.9063C29.842 88.9468 30.6098 88.9592 31.3406 88.7834C31.6643 88.7089 31.9853 88.622 32.3001 88.5174C33.033 88.2677 33.681 87.7918 34.1101 87.1708C34.713 86.3394 34.9094 85.3223 35.0955 84.3464C35.4678 81.8998 35.888 79.4597 36.2322 77.0084V77.0084Z" fill="#394F50" stroke="#394F50" stroke-width="0.5"/>
<path d="M37.6242 80.2702C38.1408 80.1832 38.6602 80.042 39.1899 80.0996C39.6306 80.1492 40.0542 80.3793 40.2862 80.7473C40.7495 81.4526 40.9062 82.2893 41.0451 83.0986C41.182 83.8431 41.2442 84.5981 41.3531 85.3465C41.7246 88.4468 42.0675 91.5497 42.3337 94.6599C42.4596 96.1822 42.6211 97.704 42.6574 99.2322C42.7511 99.9709 42.6834 100.716 42.773 101.455C42.7881 103.98 42.9373 106.502 43.0646 109.023C43.1364 109.767 43.0906 110.517 43.1782 111.26C43.2124 112.462 43.3547 113.658 43.3958 114.86C43.4526 115.758 43.5101 116.656 43.5545 117.554C43.6243 119.161 43.7557 120.768 43.7147 122.377C43.6935 122.805 43.9761 123.19 44.3401 123.414C44.8568 123.729 45.4679 123.854 46.0667 123.931C46.7907 124.047 47.5271 123.984 48.2565 124.015C47.6386 124.11 47.0118 124.054 46.3897 124.076C45.0375 124.073 43.6873 124.137 42.3364 124.182C42.2625 124.177 42.19 124.169 42.1181 124.157C42.0854 124.152 42.1617 121.778 42.1598 121.548C42.1526 120.645 42.1293 119.742 42.0897 118.84C42.0665 118.311 41.9963 117.772 41.9963 117.245C41.9606 117.054 41.9927 116.863 41.9845 116.673C41.9748 116.447 41.9653 116.221 41.9557 115.994C41.9364 115.542 41.9172 115.09 41.898 114.638C41.8595 113.734 41.8211 112.829 41.7827 111.925C41.7381 110.876 41.6466 109.825 41.6466 108.776C41.6517 108.344 41.5838 107.916 41.5785 107.485C41.5731 107.035 41.5616 106.584 41.546 106.134C41.5002 104.818 41.3708 103.506 41.3708 102.19C41.3933 101.761 41.3361 101.324 41.3175 100.895C41.298 100.444 41.277 99.9925 41.2543 99.5414C41.2089 98.6392 41.1573 97.7372 41.0992 96.8356C41.0116 95.4752 40.9605 94.0961 40.7877 92.7428C40.6762 92.0519 40.6502 91.3531 40.5708 90.6602C40.5058 90.289 40.5003 89.9118 40.4428 89.5405C40.3826 89.2215 40.4271 88.8941 40.3546 88.5777C40.3073 88.1881 40.3053 87.7946 40.2416 87.4063C40.1794 87.0782 40.2293 86.7415 40.1677 86.4141C40.0856 86.033 40.1486 85.6401 40.0726 85.259C39.9282 83.9851 39.9125 82.6895 39.5628 81.4443C39.5067 81.2351 39.4246 81.0266 39.2808 80.8579C39.1755 80.6985 38.9565 80.7697 38.7936 80.754C38.1688 80.7802 37.5386 80.7083 36.9186 80.7978C36.9083 80.673 36.8912 80.5494 36.8748 80.4265C37.1219 80.3643 37.3716 80.3101 37.6242 80.2702Z" fill="#182E30" stroke="#182E30" stroke-width="0.5"/>
<path opacity="0.95" d="M27.0684 88.6304C27.4441 88.6566 27.8109 88.7494 28.1873 88.7782C29.2329 88.9148 30.2937 88.8801 31.3407 88.7808C30.6098 88.9566 29.842 88.9442 29.094 88.9037C28.5541 88.8827 28.0155 88.837 27.4818 88.7572C27.3237 88.7285 27.1676 88.6919 27.0137 88.65L27.0684 88.6304Z" fill="#939B9B" stroke="#939B9B" stroke-width="0.5"/>
<path d="M27.4818 88.7546C28.0156 88.8344 28.5541 88.8801 29.0941 88.9011C29.2145 89.171 29.2337 89.4671 29.2761 89.7554C29.8544 93.5355 30.4682 97.315 30.7919 101.125C30.8754 102.015 30.8596 102.91 30.8795 103.803C30.9322 104.559 30.9034 105.318 30.9527 106.075C31.0054 106.777 30.9924 107.48 31.0526 108.181C31.1169 108.965 31.1156 109.751 31.1792 110.534C31.2285 111.253 31.1895 111.975 31.275 112.692C31.2935 113.893 31.44 115.089 31.429 116.292C31.5228 117.4 31.4872 118.513 31.4947 119.623C31.4844 120.211 31.5207 120.807 31.4016 121.388C31.3366 121.715 31.1888 122.058 31.3127 122.391C31.4735 122.85 31.8991 123.163 32.3364 123.373C33.0782 123.73 33.9022 123.878 34.7035 124.062C33.0276 124.097 31.2921 124.14 29.7031 123.548C29.5574 123.499 29.3918 123.389 29.467 123.221C29.7066 122.367 29.8687 121.497 29.9878 120.621C30.1739 119.845 30.1295 119.041 30.2143 118.252C30.2205 117.337 30.2472 116.42 30.1664 115.507C30.1377 115.092 30.152 114.677 30.152 114.262C30.1541 113.825 30.061 113.393 30.0775 112.956C30.098 112.3 29.9823 111.65 29.9632 110.997C29.955 110.536 29.8749 110.08 29.8763 109.619C29.8797 109.248 29.8099 108.88 29.8044 108.51C29.7996 108.243 29.8037 107.976 29.7661 107.712C29.6491 106.973 29.6634 106.223 29.5567 105.483C29.5149 105.141 29.4575 104.8 29.4581 104.456C29.4622 104.147 29.3678 103.847 29.3781 103.539C29.3835 103.189 29.2884 102.848 29.272 102.499C29.2604 102.125 29.157 101.759 29.1694 101.383C29.0907 100.914 29.1071 100.436 29.0024 99.9708C28.9449 99.3302 28.8847 98.6903 28.7923 98.0536C28.7553 97.4627 28.6684 96.8764 28.5843 96.29C28.4693 95.6723 28.4515 95.0422 28.3153 94.4284C28.1285 92.9276 27.8609 91.4373 27.6187 89.945C27.5851 89.5469 27.4777 89.1534 27.4818 88.7546Z" fill="#182E30" stroke="#182E30" stroke-width="0.5"/>
<path opacity="0.51" d="M29.5567 105.488C29.6634 106.228 29.6491 106.979 29.7661 107.717C29.8037 107.981 29.7996 108.248 29.8044 108.515C29.8099 108.885 29.8797 109.253 29.8763 109.625C29.8749 110.085 29.955 110.541 29.9632 111.002C29.9823 111.656 30.098 112.305 30.0774 112.961C30.061 113.398 30.1541 113.83 30.152 114.268C30.152 114.682 30.1377 115.097 30.1664 115.512C30.2472 116.425 30.2205 117.343 30.2143 118.258C30.1295 119.046 30.1739 119.85 29.9878 120.627C29.9974 119.985 30.1548 119.353 30.126 118.71C30.1267 118.1 30.2355 117.49 30.1685 116.88C30.0809 116.076 30.1596 115.267 30.1137 114.463C29.9844 113.688 30.0993 112.896 29.9584 112.123C29.8783 111.642 29.9639 111.153 29.8927 110.672C29.8605 110.456 29.8434 110.237 29.8434 110.02C29.8571 109.361 29.6764 108.717 29.7134 108.058C29.608 107.491 29.6846 106.913 29.5786 106.347C29.532 106.063 29.5184 105.773 29.5567 105.488Z" fill="#101C1C" stroke="#101C1C" stroke-width="0.5"/>
<path d="M29.703 123.549C31.292 124.141 33.0275 124.098 34.7034 124.063C35.3357 124.114 35.9708 124.084 36.6045 124.091C37.0814 124.086 37.5536 124.177 38.0313 124.152C38.0183 124.21 38.0067 124.27 37.9964 124.332C36.9453 124.858 35.7963 125.168 34.6541 125.456C32.5341 125.953 30.3668 126.26 28.1893 126.398C27.57 126.378 26.9568 126.487 26.3382 126.468C25.879 126.465 25.4191 126.48 24.962 126.43C24.3824 126.366 23.7774 126.47 23.2231 126.253C23.3559 126.112 23.553 126.077 23.7316 126.02C24.4043 125.798 25.053 125.517 25.725 125.294C26.3423 125.047 26.9575 124.794 27.5714 124.54C28.3091 124.265 29.0016 123.896 29.703 123.549Z" fill="#582200" stroke="#582200" stroke-width="0.5"/>
<path d="M48.2565 124.013C49.0374 123.937 49.8243 123.821 50.549 123.519C51.2347 123.837 51.9033 124.191 52.6075 124.475C53.235 124.76 53.894 124.975 54.5243 125.255C55.1155 125.485 55.7171 125.688 56.309 125.917C56.5937 126.031 56.9037 126.089 57.1672 126.25C56.9181 126.347 56.6512 126.402 56.3816 126.4C55.741 126.392 55.1053 126.499 54.4641 126.47C53.8927 126.484 53.3233 126.458 52.7546 126.409C52.0073 126.422 51.2669 126.327 50.5258 126.252C48.9518 126.109 47.3936 125.832 45.8566 125.48C45.0991 125.244 44.3265 125.051 43.5744 124.799C43.1569 124.671 42.7689 124.463 42.3364 124.382V124.18C43.6873 124.135 45.0375 124.071 46.3897 124.074C47.0117 124.052 47.6386 124.108 48.2565 124.013Z" fill="#582200" stroke="#582200" stroke-width="0.5"/>
<path d="M34.6542 125.458C35.7963 125.17 36.9453 124.859 37.9964 124.333C38.0293 124.791 37.6023 125.107 37.2485 125.342C36.1371 126.008 34.8485 126.313 33.5901 126.618C32.1667 126.919 30.7296 127.168 29.2788 127.304C28.8203 127.321 28.37 127.422 27.9108 127.428C26.6722 127.468 25.4069 127.546 24.1949 127.245C23.8158 127.143 23.4278 127.002 23.1582 126.716C23.0336 126.615 23.0925 126.443 23.0781 126.309C23.124 126.284 23.1726 126.266 23.2232 126.254C23.7775 126.471 24.3824 126.368 24.9621 126.431C25.4192 126.481 25.8791 126.466 26.3382 126.469C26.9569 126.488 27.57 126.379 28.1894 126.4C30.3669 126.261 32.5341 125.954 34.6542 125.458Z" fill="#331100" stroke="#331100" stroke-width="0.5"/>
<path d="M42.3364 124.379C42.7689 124.46 43.1569 124.669 43.5744 124.796C44.3265 125.049 45.0991 125.241 45.8566 125.477C47.3936 125.829 48.9518 126.107 50.5258 126.249C51.2669 126.325 52.0073 126.419 52.7546 126.406C53.3233 126.456 53.8927 126.481 54.4641 126.467C55.1053 126.496 55.741 126.39 56.3816 126.398C56.6512 126.399 56.9181 126.344 57.1672 126.247C57.3335 126.315 57.3807 126.494 57.2931 126.643C57.0536 126.987 56.6197 127.123 56.2276 127.242C55.3393 127.456 54.4162 127.478 53.5053 127.464C52.8087 127.446 52.11 127.425 51.4202 127.324C50.6893 127.282 49.9653 127.18 49.244 127.059C48.2894 126.948 47.3498 126.751 46.4171 126.529C45.7971 126.413 45.2113 126.185 44.6057 126.02C44.0199 125.809 43.4307 125.581 42.9284 125.217C42.6232 125.028 42.3919 124.726 42.3364 124.379Z" fill="#331100" stroke="#331100" stroke-width="0.5"/>
<path d="M38.8772 62.671C40.4723 62.9549 40.9752 62.9727 41.9668 63.0883C43.0273 63.1888 44.3449 63.1236 45.0983 63.0419C45.7443 63.0125 46.376 62.8707 47.0118 62.7648C48.906 62.3634 50.7536 61.6463 52.307 60.5226C54.5927 58.9525 56.1393 56.4634 56.565 53.8109C56.7463 52.665 56.825 51.497 56.6902 50.3433C56.684 49.8216 56.5369 49.3118 56.5437 48.7908C56.5259 48.8241 56.5082 48.8574 56.491 48.8914C56.4473 48.2829 56.2673 47.6919 56.127 47.0984C55.8088 45.9578 55.4583 44.8185 54.9308 43.7478C54.3628 42.5705 53.5991 41.4854 52.7163 40.5036C52.3838 40.1526 52.0669 39.7827 51.6809 39.4833C51.6686 39.7827 51.5762 40.086 51.3442 40.299C50.8672 40.769 50.1631 40.8853 49.5288 41.0474C48.6323 41.2925 47.7256 41.4998 46.8237 41.726C46.4117 41.8273 45.9757 41.8318 45.5768 41.9802C45.4002 42.0397 45.2723 42.2259 45.3175 42.4051C45.3661 42.6456 45.5536 42.8287 45.7397 42.9843C46.1701 43.3333 46.5472 43.7373 46.9544 44.1112C47.2835 44.408 47.5462 44.7642 47.8761 45.0609C48.0698 45.2465 48.2887 45.4138 48.4407 45.6348C48.581 45.8165 48.4311 46.072 48.234 46.1472C47.9206 46.2793 47.5962 46.3879 47.2876 46.5304C47.2698 46.1597 47.3259 45.7845 47.2431 45.4185C47.2041 46.0747 47.2213 46.7329 47.1932 47.3898C46.8942 47.4048 46.5944 47.4022 46.2953 47.4009C46.3309 47.5035 46.3672 47.6075 46.4131 47.7082C46.9619 48.7743 47.3752 49.9103 47.5839 51.083C47.6428 51.6255 47.7372 52.174 47.6578 52.7198C47.5743 53.3722 47.4197 54.0467 47.0084 54.5886C46.7873 54.8945 46.5698 55.2129 46.2543 55.4384C45.16 56.2947 43.7393 56.6633 42.3501 56.7528C41.3461 56.8919 40.041 56.7789 38.3175 56.654C36.594 56.529 34.698 56.3346 34.698 56.3346C34.0958 56.2954 33.5087 56.16 32.9141 56.075C32.8011 56.0482 32.6903 56.0757 32.5945 56.1339C32.847 56.2587 33.1555 56.4273 33.1466 56.7411C33.2048 57.1143 32.9413 57.4144 32.6908 57.6641C32.9194 57.7798 33.1987 57.8693 33.3247 58.1039C33.4013 58.2968 33.3875 58.5197 33.3218 58.7144C33.213 58.9628 32.9728 59.123 32.7764 59.3054C33.0241 59.3544 33.3273 59.3734 33.4758 59.6002C33.7571 60.0166 33.5442 60.5781 33.1576 60.8631C33.1549 60.9173 33.1522 60.9722 33.1494 61.0278C33.855 61.2337 35.5809 61.9145 35.9354 62.0128C36.2899 62.1112 37.2822 62.3869 38.8773 62.6707L38.8772 62.671Z" fill="#F2F2F2" stroke="#C8C8C8" stroke-linecap="round" stroke-linejoin="round"/>
</svg>
