<svg width="106" height="107" viewBox="0 0 106 107" fill="none" xmlns="http://www.w3.org/2000/svg">
<g clip-path="url(#clip0)">
<path d="M69.1945 65.6407C69.1945 83.4851 54.6935 97.9515 36.8056 97.9515C18.9176 97.9515 4.41669 83.4855 4.41669 65.6407C4.41669 47.7959 18.9176 33.33 36.8056 33.33C54.6935 33.33 69.1945 47.7959 69.1945 65.6407Z" fill="#0000FF"/>
<path d="M101.583 65.6407C101.583 83.4851 87.0824 97.9515 69.1944 97.9515C51.3065 97.9515 36.8055 83.4855 36.8055 65.6407C36.8055 47.7959 51.3065 33.33 69.1944 33.33C87.0824 33.33 101.583 47.7959 101.583 65.6407Z" fill="#00FF00"/>
<path d="M85.3889 37.6889C85.3889 55.5332 70.888 69.9996 53 69.9996C35.1121 69.9996 20.6111 55.5337 20.6111 37.6889C20.6111 19.8441 35.1121 5.37817 53 5.37817C70.888 5.37817 85.3889 19.8441 85.3889 37.6889Z" fill="#FF0000"/>
<path d="M69.1944 65.6746C59.5166 60.087 53 49.6631 53 37.7052C57.7644 34.9554 63.2942 33.3802 69.1944 33.3802C75.0973 33.3802 80.623 34.9698 85.3889 37.7219C85.3828 49.6691 78.8638 60.0883 69.1944 65.6737V65.6746Z" fill="#FFFF00"/>
<path d="M36.8056 65.6584C27.1278 60.0708 20.6111 49.6469 20.6111 37.689C25.3755 34.9392 30.9054 33.364 36.8056 33.364C42.7085 33.364 48.2342 34.9536 53 37.7057C52.9939 49.6529 46.475 60.0721 36.8056 65.6575V65.6584Z" fill="#FF00FF"/>
<path d="M53 93.6262C43.3222 88.0387 36.8055 77.6148 36.8055 65.6569C41.5699 62.9071 47.0998 61.3319 53 61.3319C58.9029 61.3319 64.4285 62.9215 69.1944 65.6736C69.1883 77.6208 62.6694 88.04 53 93.6253V93.6262Z" fill="#00FFFF"/>
<path d="M53 37.689C43.3222 43.2765 36.8055 53.7004 36.8055 65.6583C41.5699 68.4081 47.0998 69.9833 53 69.9833C58.9029 69.9833 64.4285 68.3937 69.1944 65.6416C69.1883 53.6944 62.6694 43.2752 53 37.6899V37.689Z" fill="white"/>
</g>
<defs>
<clipPath id="clip0">
<rect width="106" height="105.744" fill="white" transform="translate(0 0.963379)"/>
</clipPath>
</defs>
</svg>
